<?xml version="1.0" standalone="no"?>
<!DOCTYPE svg PUBLIC "-//W3C//DTD SVG 20010904//EN"
 "http://www.w3.org/TR/2001/REC-SVG-20010904/DTD/svg10.dtd">
<svg version="1.0" xmlns="http://www.w3.org/2000/svg"
 width="512.000000pt" height="512.000000pt" viewBox="0 0 512.000000 512.000000"
 preserveAspectRatio="xMidYMid meet">
<metadata>
Created by potrace 1.11, written by Peter Selinger 2001-2013
</metadata>
<g transform="translate(0.000000,512.000000) scale(0.100000,-0.100000)"
fill="#000000" stroke="none">
<path d="M390 5104 c-30 -8 -80 -26 -110 -41 -72 -35 -188 -151 -223 -223 -61
-126 -57 23 -57 -2280 0 -2303 -4 -2154 57 -2280 35 -72 151 -188 223 -223
126 -61 -23 -57 2280 -57 2303 0 2154 -4 2280 57 72 35 188 151 223 223 61
126 57 -23 57 2280 0 2303 4 2154 -57 2280 -35 72 -151 188 -223 223 -127 61
23 57 -2285 56 -1816 0 -2118 -2 -2165 -15z m2601 -355 c191 -19 350 -62 454
-123 62 -37 130 -116 145 -171 39 -139 -64 -809 -301 -1958 -44 -214 -78 -391
-76 -393 5 -6 211 83 322 138 151 76 220 123 315 214 139 134 188 152 223 84
27 -51 18 -178 -17 -255 -44 -97 -218 -259 -391 -365 -38 -24 -158 -85 -265
-137 -107 -52 -215 -104 -239 -116 -44 -22 -45 -23 -68 -112 -27 -103 -133
-374 -204 -520 -108 -222 -264 -414 -425 -521 -99 -66 -170 -98 -294 -132 -86
-24 -111 -26 -270 -26 -239 0 -380 31 -558 124 -146 76 -233 174 -278 313 -34
107 -38 242 -10 300 52 105 222 235 461 352 164 80 292 133 625 255 l265 98
12 73 c6 41 23 148 37 239 104 669 225 1166 442 1805 52 154 97 288 100 297 7
20 -73 64 -181 98 -58 19 -92 22 -200 21 -172 -1 -336 -27 -645 -101 -339 -82
-420 -83 -451 -3 -16 42 -1 79 52 138 166 181 545 342 902 384 106 12 399 13
518 0z"/>
<path d="M2010 1246 c-417 -144 -509 -194 -526 -281 -20 -108 88 -208 274
-256 91 -23 142 -24 211 -3 122 36 239 221 315 499 33 122 38 145 29 144 -5 0
-141 -46 -303 -103z"/>
</g>
</svg>
