<?xml version="1.0" standalone="no"?>
<!DOCTYPE svg PUBLIC "-//W3C//DTD SVG 20010904//EN"
 "http://www.w3.org/TR/2001/REC-SVG-20010904/DTD/svg10.dtd">
<svg version="1.0" xmlns="http://www.w3.org/2000/svg"
 width="512.000000pt" height="512.000000pt" viewBox="0 0 512.000000 512.000000"
 preserveAspectRatio="xMidYMid meet">
<metadata>
Created by potrace 1.11, written by Peter Selinger 2001-2013
</metadata>
<g transform="translate(0.000000,512.000000) scale(0.100000,-0.100000)"
fill="#000000" stroke="none">
<path d="M397 5104 c-99 -24 -167 -62 -243 -138 -77 -78 -114 -144 -139 -248
-22 -95 -22 -4221 0 -4316 25 -104 62 -170 139 -248 78 -77 144 -114 248 -139
95 -22 4221 -22 4316 0 104 25 170 62 248 139 77 78 114 144 139 248 22 95 22
4221 0 4316 -25 104 -62 170 -139 248 -78 77 -144 114 -248 139 -92 22 -4231
21 -4321 -1z m3783 -1435 c54 -24 76 -43 105 -89 38 -60 56 -131 62 -243 l6
-107 45 25 c84 47 122 24 101 -59 -14 -56 -66 -118 -122 -145 l-43 -21 -17
-119 c-45 -313 -152 -567 -302 -716 -112 -112 -301 -185 -450 -172 -120 9
-217 82 -295 220 l-32 57 -82 -83 c-161 -164 -352 -226 -559 -182 -87 18 -158
57 -211 116 -60 67 -81 137 -80 264 1 90 8 130 77 401 42 165 80 336 86 380
15 124 -4 220 -49 244 -34 18 -56 11 -140 -45 -94 -62 -125 -69 -141 -28 -14
37 5 118 39 162 39 52 60 69 127 101 190 93 380 50 444 -100 47 -110 45 -226
-8 -450 -62 -263 -100 -489 -103 -601 -1 -96 17 -133 79 -161 101 -44 235 5
365 132 l78 77 -15 49 c-56 184 -94 626 -64 762 27 127 116 207 242 219 119
11 205 -27 250 -110 20 -37 22 -56 21 -167 0 -91 -7 -151 -23 -220 -28 -122
-100 -338 -144 -433 l-35 -75 34 -69 c43 -88 83 -136 137 -162 79 -38 169 -21
257 49 103 82 212 303 266 540 8 36 17 72 20 81 3 12 -10 20 -58 33 -128 35
-229 136 -270 269 -51 168 24 327 179 383 59 21 170 17 223 -7z m-2515 -54
c97 -17 182 -59 212 -104 17 -25 23 -48 23 -90 0 -104 -61 -466 -158 -938 -21
-101 -36 -183 -34 -183 2 0 59 26 127 59 95 45 138 73 189 120 36 33 75 61 86
61 32 0 43 -42 29 -109 -20 -98 -136 -195 -361 -301 l-116 -55 -32 -98 c-41
-125 -127 -299 -179 -360 -114 -136 -232 -191 -411 -189 -160 2 -302 56 -367
141 -53 68 -70 179 -38 241 38 74 215 172 495 276 85 32 160 63 166 70 6 8 16
53 23 101 6 49 16 111 21 138 67 351 112 528 203 804 l54 162 -21 14 c-12 8
-49 21 -83 30 -81 21 -203 9 -403 -40 -80 -19 -155 -35 -168 -35 -39 0 -62 18
-62 49 0 74 205 194 390 230 30 6 64 13 75 15 50 10 268 4 340 -9z"/>
<path d="M4060 3485 c-19 -23 -14 -119 9 -162 20 -40 67 -90 76 -81 10 10 6
168 -5 203 -16 50 -56 69 -80 40z"/>
<path d="M3314 3345 c-23 -35 -29 -175 -15 -330 17 -175 22 -185 50 -91 49
166 65 343 37 411 -18 42 -48 46 -72 10z"/>
<path d="M1081 1865 c-216 -76 -259 -108 -231 -176 19 -46 88 -81 169 -87 67
-4 69 -4 108 31 21 20 51 60 66 89 35 70 70 198 54 197 -7 0 -81 -24 -166 -54z"/>
</g>
</svg>
